<?xml version="1.0" encoding="UTF-8" standalone="no" ?>
<!DOCTYPE svg PUBLIC "-//W3C//DTD SVG 1.1//EN" "http://www.w3.org/Graphics/SVG/1.1/DTD/svg11.dtd">
<svg xmlns="http://www.w3.org/2000/svg" xmlns:xlink="http://www.w3.org/1999/xlink" version="1.1" width="500" height="500" viewBox="0 0 500 500" xml:space="preserve">
<desc>Created with Fabric.js 4.6.0</desc>
<defs>
</defs>
<g transform="matrix(7.58 0 0 7.58 250 250)" id="059GGzcG7rwEQNRFymwAI"  >
<path style="stroke: none; stroke-width: 1; stroke-dasharray: none; stroke-linecap: butt; stroke-dashoffset: 0; stroke-linejoin: miter; stroke-miterlimit: 4; fill: rgb(230,35,42); fill-rule: nonzero; opacity: 1;" vector-effect="non-scaling-stroke"  transform=" translate(0, 0)" d="M -15.44192 -21.9175 C -15.704419999999999 -22.802500000000002 -17.97192 -27.335 -17.97192 -27.335 L 5.563079999999999 -27.325 C 13.44558 -27.325 23.10308 -26.627499999999998 27.88308 -21.185 C 31.73058 -16.805 32.07308 -9.909999999999998 28.91808 -0.10999999999999943 C 20.77308 25.2375 3.010580000000001 27.335 -15.50442 27.335 L -31.05192 27.335 L -15.44192 -21.917499999999997 z M -10.95442 20.645 C -4.391920000000001 20.6124 1.2480799999999999 19.55 4.670579999999999 17.305 C 9.03558 14.4275 12.05308 9.427499999999998 15.075579999999999 0.042500000000000426 C 17.75558 -8.3075 18.89808 -14.362499999999999 16.02308 -17.625 C 14.11308 -19.8125 9.518080000000001 -20.8675 3.6105800000000006 -20.8675 C 3.3430800000000005 -20.8675 3.078080000000001 -20.8675 2.8305800000000003 -20.8655 C 2.8305800000000003 -20.8655 0.3155800000000002 -20.9129 -2.19442 -20.6055 L -14.591920000000002 18.152 C -14.591920000000002 18.152 -15.251920000000002 20.6445 -12.276920000000002 20.6445" stroke-linecap="round" />
</g>
</svg>